<svg preserveAspectRatio="xMidYMid meet" viewBox="0 0 241.000000 295.000000" height="295.000000pt" width="241.000000pt" xmlns="http://www.w3.org/2000/svg" version="1.0">

<g stroke="none" fill="#000000" transform="translate(0.000000,295.000000) scale(0.100000,-0.100000)">
<path d="M1310 2862 c0 -13 7 -18 20 -17 27 2 46 20 31 29 -6 4 -11 2 -11 -5
0 -10 -3 -10 -12 -1 -17 17 -28 15 -28 -6z"></path>
<path d="M1242 2820 c-17 -36 -22 -59 -17 -80 4 -17 2 -30 -3 -30 -10 0 -32
44 -32 65 0 8 -5 17 -11 21 -9 5 -10 -6 -7 -40 5 -39 3 -45 -8 -35 -11 9 -14
6 -14 -15 0 -16 -4 -25 -10 -21 -5 3 -10 14 -10 24 0 11 -9 29 -21 42 -19 23
-20 23 -10 2 16 -32 13 -35 -9 -13 -12 12 -20 26 -19 33 3 28 -2 46 -22 68
-16 20 -18 20 -11 4 5 -11 12 -36 16 -56 4 -21 13 -42 21 -49 8 -7 15 -27 15
-44 l-1 -31 -22 27 c-18 22 -24 24 -35 12 -7 -7 -12 -17 -11 -21 4 -24 -4 -24
-32 3 -27 25 -30 26 -20 6 14 -26 4 -46 -24 -49 -56 -5 -123 -26 -157 -48 -21
-14 -62 -36 -91 -49 -29 -12 -72 -36 -96 -52 -24 -16 -55 -37 -69 -46 -85 -56
-301 -285 -342 -362 -107 -200 -138 -280 -155 -405 -54 -381 52 -736 310
-1044 54 -65 219 -200 290 -237 17 -9 39 -21 50 -27 42 -25 96 -45 194 -73 56
-16 106 -32 111 -35 4 -3 6 -22 3 -44 -3 -24 -1 -41 7 -46 8 -5 10 -2 6 11 -3
11 -2 25 3 32 6 10 10 8 15 -10 7 -22 7 -22 15 -3 5 12 16 27 25 34 14 12 16
11 16 -7 0 -11 -6 -25 -13 -31 -8 -6 -20 -29 -27 -51 -13 -38 -12 -42 8 -62
l21 -21 -1 30 c-1 36 8 53 28 53 9 0 14 -11 14 -35 0 -19 5 -35 10 -35 6 0 10
12 10 26 0 18 6 28 20 31 19 5 19 7 4 18 -13 9 -14 16 -6 31 11 18 11 17 12
-5 0 -20 2 -21 15 -11 21 17 32 -15 13 -38 -37 -45 -45 -132 -13 -132 8 0 12
6 9 13 -3 8 2 20 11 27 19 16 20 34 0 26 -22 -8 -19 23 5 59 11 17 20 46 21
65 1 34 2 34 13 -12 l11 -46 24 19 c17 14 22 26 19 44 -3 13 -1 22 3 19 12 -7
11 -67 -1 -98 -5 -14 -6 -28 -1 -30 10 -6 45 64 42 83 -2 9 3 12 13 8 21 -8
21 21 0 53 -8 14 0 8 18 -13 33 -37 53 -41 41 -9 -6 15 -4 15 14 -1 26 -23 33
-22 33 7 0 29 15 41 58 49 82 16 254 94 357 161 73 48 174 140 232 212 43 52
59 90 28 64 -8 -7 -15 -8 -15 -4 0 15 50 84 61 84 6 0 7 -4 4 -10 -10 -17 11
-11 28 8 15 17 56 86 78 132 7 14 25 52 41 86 15 33 40 103 55 155 24 87 26
109 27 314 1 201 -1 228 -23 310 -13 50 -27 99 -31 110 -41 103 -57 139 -87
195 -55 100 -126 192 -214 274 -69 65 -205 166 -223 166 -4 0 -23 11 -44 24
-46 30 -361 133 -389 128 -7 -2 -13 2 -13 9 0 8 -4 8 -15 -1 -13 -10 -15 -9
-15 10 0 13 8 32 18 43 16 19 16 20 0 14 -21 -7 -24 13 -6 31 9 9 9 15 1 23
-9 9 -14 5 -18 -14 -9 -36 -33 -55 -41 -33 -3 9 -1 23 6 31 12 14 6 35 -10 35
-5 0 -16 -15 -25 -34 -13 -27 -14 -39 -5 -55 7 -13 7 -21 1 -21 -14 0 -31 34
-31 60 0 12 9 33 20 47 11 14 20 32 20 39 0 27 -15 12 -38 -36z m268 -205 c8
-7 29 -15 45 -19 58 -14 218 -77 244 -97 41 -31 93 -66 131 -88 60 -33 223
-209 266 -286 87 -155 125 -251 151 -377 23 -111 25 -138 19 -273 -8 -212 -39
-344 -113 -480 -9 -16 -19 -35 -22 -41 -32 -59 -121 -177 -186 -245 -198 -206
-381 -309 -660 -369 -99 -22 -349 -3 -457 35 -24 8 -51 15 -60 15 -9 0 -23 6
-30 13 -7 7 -34 19 -61 25 -145 37 -317 165 -465 347 -64 78 -139 220 -184
345 -56 158 -87 381 -68 489 27 156 47 241 59 251 3 3 12 19 20 35 30 67 76
152 95 176 12 15 40 54 63 86 50 70 236 254 279 276 17 9 37 23 44 32 7 9 29
23 49 31 20 8 45 23 56 33 11 10 36 24 55 31 19 7 49 18 65 25 17 7 42 17 56
23 14 5 86 11 160 12 210 3 268 6 275 12 10 11 158 -3 174 -17z m740 -1719 c0
-2 -7 -9 -15 -16 -13 -11 -14 -10 -9 4 5 14 24 23 24 12z m-1920 -198 c0 -6
-7 -5 -15 2 -8 7 -15 17 -15 22 0 6 7 5 15 -2 8 -7 15 -17 15 -22z m1760 -33
c-7 -9 -15 -13 -17 -11 -7 7 7 26 19 26 6 0 6 -6 -2 -15z m-1666 -54 c31 -34
3 -24 -30 10 -21 23 -23 29 -9 21 11 -5 29 -20 39 -31z m1603 -16 c-15 -14
-36 -25 -45 -25 -13 1 -9 7 13 25 40 33 70 33 32 0z m-68 -52 c-18 -25 -41
-43 -53 -43 -5 0 3 14 19 30 31 32 56 41 34 13z m-93 -72 c-16 -18 -76 -46
-76 -36 0 4 82 55 89 55 2 0 -4 -9 -13 -19z m-96 -57 c0 -7 -66 -34 -82 -34
-7 1 3 9 22 20 35 19 60 25 60 14z m-150 -70 c-49 -21 -71 -16 -25 5 22 10 44
16 49 13 5 -3 -6 -11 -24 -18z m-500 -119 c0 -14 -4 -25 -9 -25 -4 0 -6 11 -3
25 2 14 6 25 8 25 2 0 4 -11 4 -25z"></path>
<path d="M1097 2563 c-3 -5 -2 -63 1 -131 5 -139 13 -155 65 -145 18 3 35 11
39 17 11 16 -8 40 -33 41 -30 0 -40 45 -33 139 4 51 2 71 -8 77 -16 11 -26 11
-31 2z"></path>
<path d="M1237 2564 c-4 -4 -7 -60 -7 -125 0 -109 2 -119 20 -129 25 -13 60
-4 60 16 0 8 -9 14 -20 14 -17 0 -20 7 -20 41 0 32 4 42 20 46 11 3 20 10 20
15 0 5 -9 12 -20 15 -38 10 -23 83 17 83 15 0 23 5 21 13 -5 13 -79 22 -91 11z"></path>
<path d="M1422 2533 c-18 -47 -31 -96 -41 -148 -5 -27 -13 -58 -16 -67 -5 -14
-2 -18 13 -18 16 0 24 10 31 38 6 20 11 45 11 54 0 9 4 19 9 22 11 7 21 -42
21 -100 0 -83 37 -67 64 28 10 35 27 85 38 112 14 35 17 51 9 59 -14 14 -24 3
-40 -48 -21 -67 -33 -95 -41 -95 -4 0 -10 32 -14 72 -11 120 -23 145 -44 91z"></path>
<path d="M965 2530 c-12 -20 -25 -254 -15 -264 14 -14 28 3 32 39 5 44 41 47
63 4 11 -20 20 -28 26 -22 11 11 -52 215 -73 240 -13 16 -25 17 -33 3z m45
-116 c0 -24 -14 -32 -25 -14 -9 14 4 52 16 45 5 -4 9 -17 9 -31z"></path>
<path d="M846 2502 c-3 -5 -1 -37 4 -73 17 -112 9 -117 -46 -29 -24 39 -43 60
-55 60 -27 0 -23 -21 13 -71 18 -24 49 -71 69 -104 47 -76 74 -82 73 -15 -1
55 -13 187 -20 218 -4 21 -28 30 -38 14z"></path>
<path d="M1655 2461 c-44 -27 -71 -60 -94 -114 -24 -55 -26 -88 -9 -105 18
-18 56 -14 67 7 13 23 3 35 -17 19 -12 -10 -13 -7 -11 22 2 22 17 52 41 81 21
25 38 50 38 56 0 14 25 34 33 27 3 -4 2 -15 -4 -26 -13 -25 -4 -35 16 -18 21
17 19 47 -4 60 -25 13 -21 13 -56 -9z"></path>
<path d="M1778 2392 c-14 -15 -51 -64 -83 -110 -41 -60 -54 -87 -47 -94 8 -8
16 -7 28 2 24 21 144 191 144 206 0 25 -17 23 -42 -4z"></path>
<path d="M583 2356 l-27 -24 27 -33 c15 -19 47 -64 72 -101 24 -38 51 -68 59
-68 7 0 24 8 37 19 20 16 22 21 10 35 -10 12 -17 14 -25 6 -19 -19 -43 -10
-56 21 -10 22 -10 33 -1 42 19 19 12 27 -19 21 -25 -6 -30 -3 -36 20 -4 15 -1
32 6 41 13 16 7 45 -9 45 -5 0 -22 -11 -38 -24z"></path>
<path d="M1814 2258 c-116 -99 -124 -112 -62 -103 37 6 46 4 52 -10 3 -9 1
-26 -5 -37 -8 -15 -8 -23 1 -32 9 -8 17 -4 36 19 13 17 24 33 24 38 0 4 14 26
30 49 17 22 30 46 30 53 0 7 9 24 21 39 22 28 19 40 -11 56 -16 9 -35 -3 -116
-72z m86 16 c0 -15 -47 -84 -57 -84 -22 0 -14 33 14 62 25 26 43 36 43 22z"></path>
<path d="M442 2240 c-31 -19 -36 -48 -7 -36 20 7 155 -137 155 -165 1 -23 3
-22 35 14 35 37 35 37 18 65 -51 82 -117 142 -154 142 -8 0 -29 -9 -47 -20z
m115 -57 c67 -71 80 -99 41 -87 -13 3 -23 7 -23 8 0 0 -26 29 -58 63 -54 58
-64 83 -34 83 6 0 40 -30 74 -67z"></path>
<path d="M1147 2223 c-12 -12 -7 -31 10 -37 24 -9 39 9 23 29 -14 16 -23 19
-33 8z"></path>
<path d="M1207 2223 c-9 -8 12 -33 29 -33 20 0 28 21 13 31 -17 10 -33 11 -42
2z"></path>
<path d="M1284 2215 c-8 -20 4 -35 26 -35 28 0 36 21 15 37 -24 17 -34 17 -41
-2z"></path>
<path d="M1067 2213 c-19 -18 19 -48 43 -33 11 7 11 11 1 24 -14 17 -33 21
-44 9z"></path>
<path d="M1360 2190 c0 -16 5 -21 23 -18 12 2 22 10 22 18 0 8 -10 16 -22 18
-18 3 -23 -2 -23 -18z"></path>
<path d="M987 2186 c-3 -8 1 -20 9 -27 12 -10 18 -9 31 3 8 9 12 21 9 27 -10
16 -43 14 -49 -3z"></path>
<path d="M1444 2187 c-7 -20 3 -37 21 -37 23 0 26 16 5 35 -18 16 -20 16 -26
2z"></path>
<path d="M2077 2180 c6 -23 3 -26 -107 -101 -60 -41 -80 -50 -103 -45 l-28 6
16 -28 c10 -15 32 -38 50 -51 31 -21 35 -21 69 -7 53 22 135 95 152 135 14 32
13 37 -11 73 -27 41 -46 50 -38 18z m1 -114 c-44 -38 -146 -92 -156 -82 -7 8
31 39 117 98 39 26 59 34 66 27 7 -7 -1 -21 -27 -43z"></path>
<path d="M871 2140 c-30 -16 -58 -36 -63 -44 -5 -9 -16 -16 -24 -16 -8 0 -26
-11 -38 -24 -13 -12 -31 -26 -40 -29 -21 -8 -32 -35 -19 -48 14 -14 39 -1 51
27 8 16 20 24 37 24 18 0 28 7 35 24 6 17 18 26 37 28 20 2 29 9 31 26 4 24
21 29 40 10 16 -16 47 13 39 36 -8 21 -22 19 -86 -14z"></path>
<path d="M1512 2143 c2 -11 14 -19 31 -21 15 -2 27 -9 27 -17 0 -15 19 -24 38
-18 24 9 11 33 -30 53 -51 25 -71 25 -66 3z"></path>
<path d="M1645 2070 c-8 -14 3 -30 21 -30 8 0 14 9 14 20 0 21 -24 28 -35 10z"></path>
<path d="M286 2054 c-4 -10 1 -26 11 -38 76 -92 127 -126 187 -126 44 0 51 11
30 52 -25 50 -53 76 -110 103 -61 29 -109 33 -118 9z m151 -70 c51 -29 75 -64
45 -64 -39 0 -162 83 -162 110 0 12 55 -9 117 -46z"></path>
<path d="M1700 2020 c0 -23 25 -27 33 -6 7 16 -1 26 -20 26 -7 0 -13 -9 -13
-20z"></path>
<path d="M2163 2026 c-8 -13 -42 -33 -165 -93 -32 -15 -58 -30 -58 -33 0 -3
10 -18 23 -33 27 -34 54 -28 59 11 3 25 6 27 46 24 38 -2 42 0 42 22 0 31 51
56 75 36 8 -7 22 -10 30 -6 14 5 13 11 -5 46 -22 42 -34 49 -47 26z"></path>
<path d="M1751 1986 c-16 -19 -6 -36 20 -36 15 0 20 6 17 22 -4 27 -21 33 -37
14z"></path>
<path d="M637 1953 c-20 -26 -17 -53 7 -53 27 0 43 52 22 69 -7 6 -18 0 -29
-16z"></path>
<path d="M219 1943 c-21 -54 -23 -93 -6 -93 9 0 20 8 26 17 9 16 19 13 113
-34 98 -50 129 -55 115 -20 -6 15 -83 54 -150 76 -40 14 -49 23 -51 55 -2 33
-34 32 -47 -1z"></path>
<path d="M1792 1928 c-8 -8 -9 -15 -1 -25 22 -26 53 -8 41 25 -5 15 -24 16
-40 0z"></path>
<path d="M570 1865 c-12 -15 -7 -45 8 -45 20 0 45 28 39 44 -8 20 -31 21 -47
1z"></path>
<path d="M1330 1869 c-14 -6 -40 -24 -58 -42 l-33 -32 -18 21 c-46 57 -141 69
-251 33 -41 -13 -82 -19 -115 -17 -33 2 -58 -2 -68 -10 -9 -8 -20 -11 -26 -8
-12 8 -25 -30 -15 -45 5 -8 10 -6 16 5 20 35 28 0 28 -121 0 -123 -1 -126 -19
-109 -17 15 -19 15 -25 1 -3 -9 -6 -59 -6 -111 0 -67 -4 -96 -12 -98 -7 -3
-26 -7 -41 -10 -32 -8 -42 -25 -33 -62 6 -21 11 -25 29 -20 33 8 48 -35 45
-129 -4 -96 9 -111 87 -99 75 10 222 12 294 4 61 -8 66 -7 83 16 23 29 57 31
89 5 21 -16 32 -18 84 -9 61 9 189 4 280 -11 73 -13 95 3 95 72 0 28 5 69 11
91 10 35 13 38 40 34 28 -4 29 -3 29 38 0 44 -11 58 -45 59 -26 0 -33 44 -22
155 6 61 14 90 27 104 16 16 22 17 34 7 13 -11 17 -11 22 2 14 39 -2 67 -48
81 -15 4 -18 17 -18 64 0 80 -19 97 -120 105 -41 4 -102 16 -134 27 -63 21
-145 25 -186 9z m200 -29 c36 -12 85 -25 110 -29 51 -7 57 -19 59 -119 1 -35
6 -73 12 -84 6 -11 7 -18 1 -14 -12 7 -22 -38 -15 -65 3 -10 9 -17 12 -14 4 2
8 -2 8 -10 0 -8 -6 -15 -14 -15 -10 0 -13 -24 -15 -97 -1 -111 -2 -117 -12
-230 -9 -96 -12 -98 -97 -54 -30 15 -86 36 -123 46 -58 16 -74 17 -116 6 -27
-7 -53 -10 -58 -7 -34 21 -33 566 1 632 21 40 46 61 87 71 47 13 82 9 160 -17z
m-358 -6 c38 -20 51 -46 33 -70 -14 -21 -42 -291 -31 -302 10 -10 18 5 23 47
4 25 11 41 19 41 11 0 14 -32 14 -164 0 -190 -5 -230 -29 -220 -71 30 -159 21
-258 -27 -46 -22 -74 -29 -105 -27 l-41 3 -2 75 c-1 41 2 111 7 155 5 44 8
164 8 267 0 135 3 189 12 194 6 4 32 7 57 6 26 -1 77 9 116 22 74 25 128 25
177 0z m62 -163 c7 -82 1 -114 -17 -108 -12 4 -18 112 -10 160 10 49 20 28 27
-52z m576 -46 c0 -9 -9 -15 -21 -15 -18 0 -19 2 -9 15 7 8 16 15 21 15 5 0 9
-7 9 -15z m-1026 -213 c-10 -102 -12 -126 -13 -181 0 -30 -4 -52 -7 -48 -8 8
-7 275 1 288 15 23 24 -7 19 -59z m-64 -116 c0 -2 3 -11 6 -20 9 -23 -13 -20
-26 4 -9 16 -8 20 5 20 8 0 15 -2 15 -4z m1050 -35 c0 -6 -4 -13 -10 -16 -5
-3 -10 1 -10 9 0 9 5 16 10 16 6 0 10 -4 10 -9z m-332 -128 c-10 -2 -26 -2
-35 0 -10 3 -2 5 17 5 19 0 27 -2 18 -5z m-428 -53 c0 -5 -4 -10 -10 -10 -5 0
-10 5 -10 10 0 6 5 10 10 10 6 0 10 -4 10 -10z m120 0 c0 -5 -21 -10 -46 -10
-27 0 -43 4 -39 10 3 6 24 10 46 10 21 0 39 -4 39 -10z"></path>
<path d="M1645 1761 c-3 -5 -1 -12 5 -16 5 -3 10 1 10 9 0 18 -6 21 -15 7z"></path>
<path d="M1540 1693 c0 -56 7 -53 15 5 3 25 1 42 -5 42 -6 0 -10 -21 -10 -47z"></path>
<path d="M1592 1720 c0 -14 2 -19 5 -12 2 6 2 18 0 25 -3 6 -5 1 -5 -13z"></path>
<path d="M1580 1625 c0 -27 3 -46 6 -42 3 3 6 22 6 42 0 20 -3 39 -6 42 -3 4
-6 -15 -6 -42z"></path>
<path d="M1642 1585 c0 -16 2 -22 5 -12 2 9 2 23 0 30 -3 6 -5 -1 -5 -18z"></path>
<path d="M1630 1528 c0 -15 -3 -33 -6 -42 -3 -9 -2 -16 4 -16 13 0 22 62 11
75 -5 5 -9 -1 -9 -17z"></path>
<path d="M1147 1783 c-2 -5 -5 -51 -6 -103 -1 -52 -5 -105 -8 -117 -3 -13 -1
-23 5 -23 13 0 18 37 21 153 2 88 -1 110 -12 90z"></path>
<path d="M1097 1676 c-5 -37 -4 -63 3 -70 17 -17 20 -2 12 64 l-8 65 -7 -59z"></path>
<path d="M1830 1866 c0 -8 7 -16 15 -20 8 -3 15 -14 15 -24 0 -10 3 -22 8 -26
4 -4 7 -17 7 -28 0 -32 31 -47 52 -26 16 17 16 19 -5 41 -13 14 -20 30 -17 40
5 11 0 16 -17 19 -15 2 -22 9 -20 21 2 11 -4 17 -18 17 -11 0 -20 -6 -20 -14z"></path>
<path d="M2259 1831 c-14 -21 -116 -63 -183 -75 -28 -5 -38 -3 -42 9 -3 8 -10
15 -15 15 -28 0 17 -100 56 -126 40 -26 145 8 204 67 28 28 32 37 27 68 -3 19
-12 41 -19 48 -12 12 -16 11 -28 -6z m9 -83 c-2 -18 -17 -28 -68 -45 -36 -13
-76 -22 -90 -20 -39 3 -30 30 15 44 22 7 60 19 85 27 62 19 62 19 58 -6z"></path>
<path d="M190 1810 c0 -14 14 -27 45 -42 76 -37 59 -44 -59 -26 -10 2 -20 -1
-22 -7 -7 -21 15 -37 57 -42 24 -2 51 -7 59 -10 8 -3 48 -7 88 -9 60 -4 72 -2
72 11 0 9 -22 27 -52 41 -90 43 -132 67 -152 86 -26 23 -36 23 -36 -2z"></path>
<path d="M530 1780 c-9 -16 -8 -22 5 -27 20 -7 50 20 41 36 -11 17 -34 13 -46
-9z"></path>
<path d="M494 1705 c-9 -23 3 -45 25 -45 25 0 34 14 26 40 -7 23 -43 27 -51 5z"></path>
<path d="M670 1691 c-21 -41 -9 -79 20 -60 11 6 22 0 43 -24 l28 -32 -3 30
c-2 21 -13 36 -37 52 -19 13 -27 23 -19 23 9 0 21 -7 28 -15 19 -23 30 -18 30
16 0 26 -2 29 -14 20 -11 -9 -20 -9 -35 -2 -26 15 -29 14 -41 -8z"></path>
<path d="M1915 1701 c-3 -6 -1 -20 5 -32 6 -11 9 -27 6 -35 -7 -17 30 -57 44
-49 15 9 12 45 -5 51 -9 4 -14 17 -12 37 1 22 -3 32 -15 35 -9 2 -19 -2 -23
-7z"></path>
<path d="M130 1644 c-14 -37 -12 -80 4 -93 12 -10 17 -8 26 8 14 27 35 26 138
0 61 -17 86 -19 94 -11 21 21 -10 40 -75 47 -99 11 -132 22 -145 50 -15 32
-30 32 -42 -1z"></path>
<path d="M486 1628 c-14 -19 -14 -24 -2 -37 8 -7 22 -11 30 -8 20 8 21 41 2
56 -11 10 -17 7 -30 -11z"></path>
<path d="M2073 1604 c-7 -18 17 -38 31 -24 11 11 1 40 -14 40 -6 0 -13 -7 -17
-16z"></path>
<path d="M1944 1546 c-8 -21 3 -36 27 -36 15 0 20 6 17 22 -4 27 -35 37 -44
14z"></path>
<path d="M2076 1545 c-9 -9 -16 -26 -16 -38 0 -46 14 -51 127 -58 59 -4 117
-8 128 -10 16 -3 20 1 20 26 l0 30 -108 -4 c-76 -2 -112 1 -123 10 -19 16 -2
29 39 29 42 0 28 24 -15 28 -23 2 -41 -3 -52 -13z"></path>
<path d="M477 1543 c-15 -14 -7 -43 12 -43 17 0 31 18 31 41 0 10 -33 12 -43
2z"></path>
<path d="M125 1490 c-15 -25 16 -33 144 -36 123 -2 131 -1 131 17 0 17 -8 19
-58 19 -33 0 -93 3 -134 6 -54 5 -77 3 -83 -6z"></path>
<path d="M1951 1471 c-18 -33 -14 -53 12 -49 26 4 35 39 13 57 -12 10 -17 9
-25 -8z"></path>
<path d="M472 1468 c-19 -19 -14 -46 9 -53 14 -5 27 -1 37 9 14 14 14 17 -3
36 -21 23 -27 24 -43 8z"></path>
<path d="M132 1418 c-19 -19 -15 -102 6 -121 24 -22 32 -21 32 2 0 31 20 38
117 43 89 5 130 19 117 40 -4 6 -31 8 -68 4 -171 -18 -176 -18 -176 1 0 30
-14 45 -28 31z"></path>
<path d="M1936 1375 c-8 -22 1 -35 25 -35 15 0 20 6 17 22 -4 27 -33 36 -42
13z"></path>
<path d="M2059 1378 c-21 -8 -21 -9 -4 -28 35 -38 226 -143 239 -130 13 13 -1
28 -57 56 -90 45 -97 49 -97 55 0 4 37 4 83 2 68 -5 85 -3 96 11 11 13 10 17
-10 25 -32 12 -223 19 -250 9z"></path>
<path d="M480 1370 c-11 -7 -12 -14 -4 -27 16 -25 31 -27 44 -3 18 34 -6 52
-40 30z"></path>
<path d="M1923 1293 c-7 -3 -13 -16 -13 -29 0 -17 5 -24 20 -24 11 0 23 7 27
16 7 18 -16 44 -34 37z"></path>
<path d="M318 1272 c-15 -10 -44 -40 -64 -66 l-37 -49 -19 22 c-20 25 -16 41
10 41 12 0 13 3 5 11 -15 15 -51 2 -58 -22 -10 -30 3 -56 36 -69 37 -16 65 -3
94 40 31 46 72 73 101 66 31 -8 31 -24 -1 -36 -29 -11 -33 -28 -8 -37 10 -4
24 3 40 21 29 34 29 41 -2 71 -29 29 -60 32 -97 7z"></path>
<path d="M500 1267 c0 -31 24 -41 45 -20 21 21 14 37 -18 41 -23 3 -27 0 -27
-21z"></path>
<path d="M2030 1277 c0 -8 11 -24 25 -37 14 -13 25 -35 25 -48 0 -23 -3 -24
-35 -19 -30 5 -55 -6 -43 -19 10 -9 195 -54 226 -54 19 0 35 6 38 14 6 17 -12
56 -27 56 -5 0 -32 15 -59 33 -77 51 -137 87 -144 87 -3 0 -6 -6 -6 -13z m150
-119 c0 -12 -58 -10 -65 2 -4 6 -4 18 -1 26 5 13 10 13 36 -3 16 -9 30 -21 30
-25z"></path>
<path d="M1892 1208 c-15 -15 -15 -35 -2 -43 15 -9 40 14 40 36 0 21 -20 25
-38 7z"></path>
<path d="M525 1193 c-4 -12 1 -24 14 -34 13 -11 18 -24 14 -37 -3 -14 1 -24
15 -31 11 -6 22 -23 25 -39 3 -16 14 -38 24 -48 10 -9 23 -27 28 -38 15 -30
39 -26 43 7 3 22 -1 27 -17 27 -17 0 -21 6 -21 31 0 22 -5 32 -20 36 -11 3
-20 13 -20 23 0 10 -7 23 -15 30 -8 7 -15 24 -15 39 0 45 -41 70 -55 34z"></path>
<path d="M400 1146 c-72 -27 -190 -86 -190 -96 0 -16 27 -12 71 11 65 33 76
21 29 -31 -22 -24 -40 -47 -40 -51 0 -4 -3 -15 -7 -25 -5 -14 -2 -16 22 -10
16 4 40 15 54 25 14 9 56 32 94 51 63 32 80 51 57 65 -6 4 -33 -8 -61 -25 -28
-17 -54 -29 -57 -25 -3 3 16 27 42 54 27 27 45 54 42 60 -9 13 -12 13 -56 -3z"></path>
<path d="M1847 1133 c-11 -10 -8 -41 4 -49 16 -9 43 21 36 40 -7 16 -28 21
-40 9z"></path>
<path d="M1960 1105 c0 -8 20 -26 45 -41 25 -14 45 -28 45 -31 0 -3 -31 -2
-70 1 -58 6 -70 5 -70 -7 0 -8 32 -41 70 -72 39 -31 70 -60 70 -64 0 -4 14
-15 31 -25 21 -13 34 -15 41 -8 15 15 2 41 -25 51 -33 13 -87 60 -87 77 0 18
15 18 76 -1 81 -24 157 -16 121 13 -16 13 -229 122 -239 122 -5 0 -8 -7 -8
-15z"></path>
<path d="M1807 1063 c-4 -3 -7 -15 -7 -25 0 -20 44 -26 55 -8 14 22 -30 52
-48 33z"></path>
<path d="M421 955 c-107 -74 -124 -91 -98 -101 20 -7 48 8 204 118 36 25 41
43 17 52 -9 3 -16 6 -17 5 -1 -1 -49 -34 -106 -74z"></path>
<path d="M1751 991 c-21 -14 -5 -43 21 -39 15 2 23 10 23 23 0 22 -22 30 -44
16z"></path>
<path d="M702 923 c2 -20 9 -29 26 -31 12 -2 22 -10 22 -18 0 -12 37 -34 56
-34 16 0 -5 46 -26 57 -13 6 -28 21 -32 32 -4 12 -16 21 -28 21 -17 0 -21 -5
-18 -27z"></path>
<path d="M1681 936 c-15 -17 12 -48 34 -40 20 8 19 40 -1 48 -21 8 -20 8 -33
-8z"></path>
<path d="M1620 884 c-11 -12 -11 -18 1 -30 13 -12 18 -12 34 -1 11 9 16 20 12
31 -8 20 -31 21 -47 0z"></path>
<path d="M825 853 c-16 -16 -16 -18 5 -35 12 -10 30 -18 40 -18 10 0 23 -7 30
-15 7 -8 23 -15 35 -15 12 0 28 -7 35 -15 15 -18 42 -19 58 -3 18 18 -4 48
-37 48 -16 0 -34 7 -41 15 -7 8 -20 15 -30 15 -9 0 -29 9 -43 20 -31 24 -31
24 -52 3z"></path>
<path d="M1828 859 c-21 -12 -14 -35 13 -42 25 -7 25 -37 -1 -44 -23 -6 -26
-26 -7 -42 11 -8 16 -5 25 14 15 33 40 32 53 -2 9 -25 11 -26 27 -9 16 16 16
18 -7 35 -28 21 -23 51 9 51 24 0 26 13 5 30 -12 10 -19 7 -39 -17 l-25 -28
-11 33 c-13 35 -16 36 -42 21z"></path>
<path d="M494 846 c-10 -8 -17 -16 -14 -18 3 -2 14 -8 25 -14 25 -14 32 -44
11 -44 -21 0 -30 -18 -16 -35 17 -21 37 -19 43 5 6 23 27 27 27 6 0 -7 7 -19
16 -26 12 -11 18 -10 32 5 11 11 13 19 6 22 -6 2 -19 9 -28 16 -21 16 -11 47
15 47 21 0 25 20 7 38 -17 17 -23 15 -36 -13 -6 -14 -18 -25 -27 -25 -9 0 -15
9 -15 25 0 28 -17 32 -46 11z"></path>
<path d="M1545 840 c-8 -13 13 -40 31 -40 20 0 27 19 14 35 -14 17 -36 19 -45
5z"></path>
<path d="M1466 822 c-14 -14 -4 -40 21 -51 29 -14 47 -3 41 25 -3 17 -51 38
-62 26z"></path>
<path d="M733 750 c-21 -28 -55 -71 -75 -96 -21 -25 -38 -52 -38 -60 0 -28 39
-13 74 28 19 24 37 40 39 38 3 -3 -1 -23 -9 -45 -7 -22 -14 -50 -14 -63 0 -35
36 -19 92 41 50 53 75 59 40 10 -31 -44 -62 -110 -55 -117 11 -11 43 -6 43 6
0 6 22 55 49 108 37 72 47 100 39 113 -5 9 -12 17 -16 17 -5 0 -34 -22 -67
-50 -32 -27 -60 -48 -62 -46 -2 2 8 27 22 57 30 65 31 85 6 99 -27 14 -25 15
-68 -40z"></path>
<path d="M1381 787 c-16 -20 27 -58 56 -51 24 7 21 30 -5 52 -20 16 -37 15
-51 -1z"></path>
<path d="M1055 759 c-4 -13 -2 -27 7 -35 12 -12 17 -11 36 7 18 16 21 24 11
35 -17 21 -47 17 -54 -7z"></path>
<path d="M1142 768 c-18 -18 -14 -46 7 -58 26 -14 29 -13 41 10 20 38 -19 77
-48 48z"></path>
<path d="M1220 764 c-11 -13 -10 -19 8 -36 20 -21 22 -21 41 -4 16 15 22 15
40 4 17 -11 23 -10 37 4 14 14 15 20 4 32 -16 20 -47 20 -58 0 -8 -14 -10 -14
-21 0 -17 20 -35 20 -51 0z"></path>
<path d="M1563 736 c-33 -15 -44 -36 -19 -36 21 0 38 -26 63 -98 25 -71 29
-107 13 -117 -5 -3 -10 -10 -10 -16 0 -16 24 -9 54 16 26 21 28 26 16 40 -14
17 -69 169 -70 193 0 20 35 14 57 -10 32 -35 41 -59 49 -126 4 -38 11 -62 19
-62 17 0 37 48 30 74 -12 43 -58 127 -75 136 -33 18 -94 20 -127 6z"></path>
<path d="M1014 688 c-12 -5 -36 -41 -55 -79 -18 -39 -40 -75 -47 -81 -7 -7
-20 -24 -28 -40 -13 -25 -13 -29 1 -34 9 -4 26 2 39 15 37 34 62 28 70 -18 7
-44 33 -63 40 -28 9 47 25 260 20 268 -6 11 -13 10 -40 -3z m-13 -151 c-8 -8
-14 -8 -22 0 -8 8 -6 20 7 43 l19 32 3 -32 c2 -18 -1 -37 -7 -43z"></path>
<path d="M1476 691 c-6 -9 10 -97 37 -201 11 -44 19 -56 37 -58 28 -4 26 5
-22 160 -32 103 -40 119 -52 99z"></path>
<path d="M1120 670 c-7 -4 -8 -18 -4 -34 3 -15 1 -70 -6 -122 -11 -82 -15 -94
-32 -94 -35 0 -13 -25 31 -34 95 -20 138 39 128 178 -4 57 -8 72 -28 87 -26
19 -73 29 -89 19z m82 -65 c9 -20 8 -40 -6 -98 -18 -72 -30 -97 -48 -97 -10 0
-6 89 7 145 3 17 8 40 11 53 6 29 22 28 36 -3z"></path>
<path d="M1287 653 c-2 -5 -5 -65 -5 -135 -2 -126 5 -151 32 -129 9 8 11 40 8
126 l-5 115 37 0 c34 0 36 -2 36 -32 0 -21 -9 -41 -27 -60 l-26 -27 27 -11
c18 -6 34 -25 47 -55 16 -36 25 -45 44 -45 33 0 31 11 -10 66 -36 47 -43 70
-24 76 20 7 13 67 -11 93 -19 20 -33 25 -71 25 -26 0 -50 -3 -52 -7z"></path>
<path d="M1191 2853 c-1 -6 -4 -20 -7 -30 -5 -17 -5 -17 6 0 6 10 9 23 6 30
-3 9 -5 9 -5 0z"></path>
<path d="M970 2755 c25 -49 36 -60 44 -46 4 6 2 11 -3 11 -6 0 -11 6 -11 13 0
8 -11 24 -25 37 l-24 23 19 -38z"></path>
<path d="M1020 2755 c0 -8 4 -15 10 -15 5 0 7 7 4 15 -4 8 -8 15 -10 15 -2 0
-4 -7 -4 -15z"></path>
<path d="M1370 2710 c0 -5 5 -10 11 -10 5 0 7 5 4 10 -3 6 -8 10 -11 10 -2 0
-4 -4 -4 -10z"></path>
<path d="M1256 64 c-9 -24 -7 -34 7 -34 6 0 13 11 13 25 2 28 -11 34 -20 9z"></path>
</g>
</svg>
